<?xml version="1.0" standalone="no"?>
<!DOCTYPE svg PUBLIC "-//W3C//DTD SVG 20010904//EN"
 "http://www.w3.org/TR/2001/REC-SVG-20010904/DTD/svg10.dtd">
<svg version="1.0" xmlns="http://www.w3.org/2000/svg"
 width="500.000000pt" height="500.000000pt" viewBox="0 0 500.000000 500.000000"
 preserveAspectRatio="xMidYMid meet">
<metadata>
Created by potrace 1.11, written by Peter Selinger 2001-2013
</metadata>
<g transform="translate(0.000000,500.000000) scale(0.100000,-0.100000)"
fill="#000000" stroke="none">
<path d="M0 2500 l0 -2500 2500 0 2500 0 0 2500 0 2500 -2500 0 -2500 0 0
-2500z m1966 410 c296 -495 541 -900 545 -900 4 0 249 405 545 900 505 842
541 900 567 900 l27 0 0 -1180 0 -1180 -35 0 -35 0 -2 1097 -3 1097 -519 -867
c-443 -741 -522 -867 -541 -867 -12 0 -27 6 -34 13 -6 8 -242 400 -526 873
l-515 859 0 -1102 0 -1103 -35 0 -35 0 0 1180 0 1180 29 0 c27 0 52 -39 567
-900z m1080 -1954 c84 69 188 55 245 -34 55 -86 47 -184 -21 -252 -68 -68
-154 -72 -231 -10 l-38 30 -4 -38 c-2 -20 -3 85 -3 233 0 149 2 217 3 152 l4
-118 45 37z m-1554 -16 c62 -104 116 -190 119 -190 4 0 58 86 120 190 63 105
117 190 121 190 5 0 8 -116 8 -257 0 -168 -3 -254 -10 -247 -5 5 -11 105 -12
234 l-3 224 -109 -182 c-59 -100 -112 -179 -117 -176 -5 3 -58 87 -117 186
l-107 181 -3 -237 c-1 -152 -6 -235 -12 -231 -13 8 -14 505 0 505 5 0 60 -85
122 -190z m938 120 l0 -60 39 0 c22 0 43 -4 46 -10 4 -6 -12 -10 -39 -10 l-46
0 0 -165 0 -165 24 -10 c15 -5 37 -5 55 0 17 5 31 5 31 0 0 -9 -35 -20 -67
-20 -13 0 -32 9 -43 20 -18 18 -20 33 -20 180 l0 160 -25 0 c-14 0 -25 5 -25
10 0 6 11 10 25 10 24 0 25 3 25 60 0 33 4 60 10 60 6 0 10 -27 10 -60z m1177
-39 c53 -25 78 -63 77 -118 -1 -46 -29 -88 -69 -103 -18 -6 -17 -9 13 -24 17
-9 39 -31 48 -49 21 -40 21 -110 -1 -143 -53 -82 -202 -87 -263 -9 -29 36 -18
48 11 12 24 -30 83 -57 122 -57 43 0 94 27 115 62 51 84 -3 188 -99 188 -16 0
-33 5 -36 10 -4 6 6 10 23 10 45 0 89 19 106 45 33 50 11 132 -44 160 -59 31
-160 8 -183 -42 -5 -12 -14 -23 -19 -23 -32 0 30 68 77 85 53 19 72 18 122 -4z
m-1397 -41 c73 -37 113 -131 96 -225 -9 -48 -79 -120 -131 -134 -75 -20 -155
21 -197 102 -15 31 -19 54 -16 98 10 137 135 217 248 159z m620 -15 c17 -16
32 -42 35 -59 8 -52 10 -284 3 -279 -5 2 -8 15 -8 29 l0 25 -33 -25 c-96 -73
-228 -42 -244 57 -14 91 88 141 235 114 42 -7 42 -7 42 23 0 44 -24 96 -55
116 -35 23 -102 21 -154 -5 -22 -12 -41 -17 -41 -12 0 4 21 18 48 30 65 30
132 24 172 -14z"/>
<path d="M3123 979 c-45 -9 -77 -32 -103 -74 -19 -31 -22 -47 -19 -114 4 -88
16 -109 81 -142 50 -26 93 -24 144 6 159 93 74 362 -103 324z"/>
<path d="M2105 980 c-132 -28 -176 -202 -76 -301 139 -139 344 58 239 229 -35
56 -100 85 -163 72z"/>
<path d="M2660 809 c-43 -17 -60 -40 -60 -80 0 -81 81 -120 175 -85 59 23 85
57 85 112 0 41 -2 43 -37 53 -47 13 -130 13 -163 0z"/>
</g>
</svg>
